# xmcd CD database file
#
# Track frame offsets:
#	150
#	12997
#	19869
#	29994
#	38858
#	51265
#	62689
#	74486
#	85215
#	98445
#	108204
#	118270
#	128003
#	138272
#	151688
#	170189
#	183678
#	193975
#	207216
#	219265
#	232571
#	251724
#
# Disc length: 3473 seconds
#
# Revision: 0
# Processed by: cddbd v1.5.2PL0 Copyright (c) Steve Scherf et al.
# Submitted via: CDex 1.95
#
DISCID=380d8f16
DTITLE=Dave Dudley - King Of Country Music-Vol 4
DYEAR=2005
DGENRE=Country
TTITLE0=Dave Dudley - Big Old House
TTITLE1=Dave Dudley - Boo On You
TTITLE2=Dave Dudley - Cowboy Boots
TTITLE3=Dave Dudley - I Just Don't like This Kind Of living
TTITLE4=Dave Dudley - I Think I'll Cheat A Little Tonight
TTITLE5=Dave Dudley - If I Can Just Hold Out A Little Longer
TTITLE6=Dave Dudley - Where Did All The Cowboys Go
TTITLE7=Dave Dudley - All I Want For Christmas Is You for Me
TTITLE8=Dave Dudley - Can I Sing A Christmas Song For You
TTITLE9=Dave Dudley - Jingle Bells
TTITLE10=Dave Dudley - Lonely Christmas Again
TTITLE11=Dave Dudley - Oh Chrisrmas Tree
TTITLE12=Dave Dudley - Oh Come All Ye Faithful
TTITLE13=Dave Dudley - Old Time Merry Christmas
TTITLE14=Dave Dudley - Reverend Nicholas
TTITLE15=Dave Dudley - Silent Night
TTITLE16=Dave Dudley - Six Tons Of Toys
TTITLE17=Dave Dudley - White Christmas
TTITLE18=Dave Dudley - So Come All Ye Faithful, Take Her By The Hand
TTITLE19=Dave Dudley - I Feel A Cry ComingOn
TTITLE20=Dave Dudley - Faded Love
TTITLE21=Dave Dudley - Give Me Back That Old Familiar Feeling
EXTD=YEAR: 2005
EXTT0=
EXTT1=
EXTT2=
EXTT3=
EXTT4=
EXTT5=
EXTT6=
EXTT7=
EXTT8=
EXTT9=
EXTT10=
EXTT11=
EXTT12=
EXTT13=
EXTT14=
EXTT15=
EXTT16=
EXTT17=
EXTT18=
EXTT19=
EXTT20=
EXTT21=
PLAYORDER=
